<svg xmlns="http://www.w3.org/2000/svg">
    <symbol id="play" viewBox="0 0 11 13">
        <path d="M-0.000244141 11.8379C0.00330498 12.0466 0.0632313 12.2503 0.173022 12.4268C0.282814 12.6034 0.43827 12.7461 0.622496 12.8394C0.806459 12.9447 1.01417 13.0001 1.22547 13.0001C1.43677 13.0001 1.64448 12.9447 1.82844 12.8394L10.3788 7.48152C10.5648 7.39072 10.7218 7.24856 10.8316 7.0714C10.9415 6.89424 10.9998 6.68927 10.9998 6.48005C10.9998 6.27083 10.9415 6.06585 10.8316 5.88869C10.7218 5.71153 10.5648 5.56938 10.3788 5.47857L1.82844 0.16073C1.64448 0.0554178 1.43677 7.62939e-05 1.22547 7.62939e-05C1.01417 7.62939e-05 0.806459 0.0554178 0.622496 0.16073C0.43827 0.254056 0.282814 0.396755 0.173022 0.573319C0.0632313 0.749882 0.00330498 0.953556 -0.000244141 1.16221V11.8379Z"></path>
        
    </symbol>
    <symbol id="pause" viewBox="0 0 320 512">
        <path d="M48 64C21.5 64 0 85.5 0 112V400c0 26.5 21.5 48 48 48H80c26.5 0 48-21.5 48-48V112c0-26.5-21.5-48-48-48H48zm192 0c-26.5 0-48 21.5-48 48V400c0 26.5 21.5 48 48 48h32c26.5 0 48-21.5 48-48V112c0-26.5-21.5-48-48-48H240z"></path>
    </symbol>

    <symbol id="mute"  viewBox="0 0 576 512">
        <path d="M301.1 34.8C312.6 40 320 51.4 320 64V448c0 12.6-7.4 24-18.9 29.2s-25 3.1-34.4-5.3L131.8 352H64c-35.3 0-64-28.7-64-64V224c0-35.3 28.7-64 64-64h67.8L266.7 40.1c9.4-8.4 22.9-10.4 34.4-5.3zM425 167l55 55 55-55c9.4-9.4 24.6-9.4 33.9 0s9.4 24.6 0 33.9l-55 55 55 55c9.4 9.4 9.4 24.6 0 33.9s-24.6 9.4-33.9 0l-55-55-55 55c-9.4 9.4-24.6 9.4-33.9 0s-9.4-24.6 0-33.9l55-55-55-55c-9.4-9.4-9.4-24.6 0-33.9s24.6-9.4 33.9 0z"/>
    </symbol>
     <symbol id="volMed" viewBox="0 0 448 512">
        <path d="M301.1 34.8C312.6 40 320 51.4 320 64V448c0 12.6-7.4 24-18.9 29.2s-25 3.1-34.4-5.3L131.8 352H64c-35.3 0-64-28.7-64-64V224c0-35.3 28.7-64 64-64h67.8L266.7 40.1c9.4-8.4 22.9-10.4 34.4-5.3zM412.6 181.5C434.1 199.1 448 225.9 448 256s-13.9 56.9-35.4 74.5c-10.3 8.4-25.4 6.8-33.8-3.5s-6.8-25.4 3.5-33.8C393.1 284.4 400 271 400 256s-6.9-28.4-17.7-37.3c-10.3-8.4-11.8-23.5-3.5-33.8s23.5-11.8 33.8-3.5z"/>
    </symbol>
    <symbol id="volHigh"  viewBox="0 0 640 512">
        <path d="M533.6 32.5C598.5 85.2 640 165.8 640 256s-41.5 170.7-106.4 223.5c-10.3 8.4-25.4 6.8-33.8-3.5s-6.8-25.4 3.5-33.8C557.5 398.2 592 331.2 592 256s-34.5-142.2-88.7-186.3c-10.3-8.4-11.8-23.5-3.5-33.8s23.5-11.8 33.8-3.5zM473.1 107c43.2 35.2 70.9 88.9 70.9 149s-27.7 113.8-70.9 149c-10.3 8.4-25.4 6.8-33.8-3.5s-6.8-25.4 3.5-33.8C475.3 341.3 496 301.1 496 256s-20.7-85.3-53.2-111.8c-10.3-8.4-11.8-23.5-3.5-33.8s23.5-11.8 33.8-3.5zm-60.5 74.5C434.1 199.1 448 225.9 448 256s-13.9 56.9-35.4 74.5c-10.3 8.4-25.4 6.8-33.8-3.5s-6.8-25.4 3.5-33.8C393.1 284.4 400 271 400 256s-6.9-28.4-17.7-37.3c-10.3-8.4-11.8-23.5-3.5-33.8s23.5-11.8 33.8-3.5zM301.1 34.8C312.6 40 320 51.4 320 64V448c0 12.6-7.4 24-18.9 29.2s-25 3.1-34.4-5.3L131.8 352H64c-35.3 0-64-28.7-64-64V224c0-35.3 28.7-64 64-64h67.8L266.7 40.1c9.4-8.4 22.9-10.4 34.4-5.3z"/>
    </symbol>
</svg>