<svg width="24" height="24" viewBox="0 0 24 24" fill="none" xmlns="http://www.w3.org/2000/svg">
<path d="M19 5V20" stroke="white" stroke-opacity="0.6" stroke-width="2" stroke-linecap="round" stroke-linejoin="round"/>
<path d="M5.02151 17.8769C5.02098 18.0845 5.07264 18.2883 5.17105 18.467C5.26945 18.6457 5.41096 18.7927 5.58065 18.8923C5.74411 18.9936 5.92953 19.0469 6.11828 19.0469C6.30703 19.0469 6.49246 18.9936 6.65592 18.8923L14.3871 13.4692C14.538 13.3646 14.6621 13.2211 14.748 13.0518C14.8339 12.8825 14.8789 12.6928 14.8789 12.5C14.8789 12.3072 14.8339 12.1175 14.748 11.9482C14.6621 11.7789 14.538 11.6353 14.3871 11.5307L6.63441 6.15382C6.47095 6.05255 6.28553 5.99924 6.09678 5.99924C5.90803 5.99924 5.72261 6.05255 5.55914 6.15382C5.38945 6.25346 5.24795 6.40036 5.14954 6.57906C5.05114 6.75776 4.99948 6.96164 5 7.16921L5.02151 17.8769Z" fill="white" fill-opacity="0.6"/>
</svg>
