<svg width="24" height="24" viewBox="0 0 24 24" fill="none" xmlns="http://www.w3.org/2000/svg">
<path d="M6.46028 9.13521H4.38415C4.01707 9.13521 3.66502 9.28103 3.40545 9.5406C3.14588 9.80017 3.00006 10.1522 3.00006 10.5193V13.2875C3.00006 13.6546 3.14588 14.0066 3.40545 14.2662C3.66502 14.5258 4.01707 14.6716 4.38415 14.6716H6.46028V9.13521Z" stroke="#BFBAC9" stroke-width="1.5" stroke-linecap="round" stroke-linejoin="round"/>
<path d="M6.46027 14.6716L11.872 18.5609C12.0726 18.6997 12.3062 18.783 12.5492 18.8024C12.7922 18.8218 13.0361 18.7767 13.2561 18.6716C13.4947 18.5645 13.6981 18.3919 13.8426 18.1738C13.9871 17.9558 14.0669 17.7013 14.0727 17.4398V6.367C14.0787 6.11844 14.0175 5.87288 13.8957 5.65611C13.774 5.43935 13.5961 5.25939 13.3807 5.13515C13.1607 5.03006 12.9168 4.98495 12.6738 5.00439C12.4307 5.02384 12.1971 5.10714 11.9966 5.24588L6.46027 9.1352" stroke="#BFBAC9" stroke-width="1.5" stroke-linecap="round" stroke-linejoin="round"/>
<path d="M19.6091 7.7511C20.5715 8.91454 21.065 10.3952 20.9932 11.9034C20.9724 13.6128 20.4945 15.2854 19.6091 16.7477" stroke="#BFBAC9" stroke-width="1.5" stroke-linecap="round" stroke-linejoin="round"/>
<path d="M16.8409 9.82726C17.3221 10.409 17.5689 11.1493 17.533 11.9034C17.5689 12.6575 17.3221 13.3978 16.8409 13.9796" stroke="#BFBAC9" stroke-width="1.5" stroke-linecap="round" stroke-linejoin="round"/>
</svg>
